<svg version="1" xmlns="http://www.w3.org/2000/svg" width="682.667" height="682.667" viewBox="0 0 512.000000 512.000000"><path d="M76.3 1.2c-3.7 1.8-4.5 5.6-4.1 19.7.3 12 .5 13.2 2.5 15.3l2.3 2.2 45.2.2c49.5.1 47.9-.1 56.4 6.2 2.6 1.9 5.1 5 6.7 8.4 2 4 10.9 38.6 14.3 55.3.7 3.4 5.5 24.9 5.9 26 .2.7-6.4 1.1-19.6 1.2-19.8 0-19.9.1-23.9 2.7-7.5 5-8.7 10.9-5.5 28.6.3 1.7 1.7 12.6 2 15.5.4 3 1.4 10.7 2.5 18.5.5 3.9 1.2 9.2 1.5 11.8.3 2.6.7 6 1 7.7.7 4.4 1.2 8.2 3.5 25.5 1.1 8.5 2.9 21.6 4 29 1.1 7.4 2.4 17.3 3 22 .6 4.7 1.3 9.6 1.5 11 .2 1.4.9 6.3 1.5 11s1.3 9.6 1.5 11c.2 1.4.9 6.3 1.5 11s1.7 13.2 2.6 19c1.8 12.9 1.6 11.8 5.9 43.5 1.9 14.3 3.7 27.1 4 28.5.2 1.4.7 4.7 1 7.5.3 2.7.8 6.1 1 7.5.3 1.4.7 4.1.9 6 1.6 11.9 2.7 19.8 3 21.5.2 1.1.7 4.7 1 8 1.3 11.9 8.4 21.9 19.1 27.1 3.8 1.8 7.4 1.9 77.1 2.2 71.6.3 73.3.2 78.6-1.8 12.9-4.8 19.1-14 21.2-31.5.4-2.8.8-6.1 1.1-7.5.4-2.4.6-3.7 2-14.5.4-2.8.9-6.2 1.1-7.6.4-3.1 7.2-52.6 7.9-57.9.3-1.9 1.1-8.2 2-14 .8-5.8 1.7-12.5 2-15 .3-2.5 1.2-9 2-14.5.7-5.5 2.3-17 3.5-25.5 1.1-8.5 2.5-18.4 3-22 .5-3.6 1.2-8.5 1.5-11 .3-2.5 1-7.2 1.5-10.5s1.2-8.7 1.6-12c.3-3.3.8-6.2.9-6.5.2-.3.6-3.4 1-7s.9-7.4 1.1-8.5c.2-1.1 1.3-9.2 2.4-18 1.1-8.8 2.3-17.8 2.6-20 .4-2.2.8-5.1.9-6.5.2-1.4.6-4.1.8-6 .3-1.9.9-5.8 1.2-8.5.4-2.8.8-6.6 1.1-8.5.2-1.9.7-4.9.9-6.5.3-1.7.8-5 1.2-7.5 1.5-9.6.9-16.5-1.7-20.3-4.6-6.7-6.4-7.1-40.2-7.1l-30-.1-1.4-2.8c-3-5.5-11.3-5.4-13.2.2l-1 2.7h-52.8l-52.8-.1-2.3-9c-1.2-5-2.4-10.1-2.7-11.5-.2-1.4-2.1-9.5-4.1-18-3.3-13.6-7.9-33.1-9-38.3-2.6-11.8-7.9-25.6-11.7-30.3C203.6 13.2 191.2 5 175.3 1.7c-8.6-1.9-95.4-2.3-99-.5z"/></svg>